<svg xmlns="http://www.w3.org/2000/svg" fill="#fff" viewBox="0 0 693 100"><path d="M139.13 13.99h5.94l12.37 18.87a49.82 49.82 0 012.72 5.06h.1s-.32-3.13-.32-5.06V13.99h5.88v32.62h-5.88l-12.39-18.82a50 50 0 01-2.71-5.06h-.1s.33 3.13.33 5.06v18.82h-5.94V13.99zm49.5-.6c8 0 12 4.46 12 4.46l-2.85 4.42a14.41 14.41 0 00-8.93-3.45c-6.9 0-10.94 5.15-10.94 11.22s4.18 11.69 11 11.69a14.08 14.08 0 009.48-4.14l3.13 4.28a17.59 17.59 0 01-12.84 5.29c-10 0-16.88-7.41-16.88-17a16.41 16.41 0 0116.83-16.77zm18.4.6h19.55v5.11h-13.62v8.56h11v5.1h-11v8.79h14.35v5.11h-20.28zm53.86 24.24h-11.45l-2.76 8.38h-6.12l11.5-32.62h6.2l11.5 32.67h-6.12l-2.75-8.43zm-5.75-18.63s-.73 3.22-1.38 5.06l-2.9 8.74h8.56l-2.9-8.74c-.6-1.84-1.28-5.06-1.28-5.06h-.1zm33.22-6.21a16.53 16.53 0 0116.9 16.7 17.08 17.08 0 01-3.59 10.35l3.68 3.31-3.41 3.78-3.6-3.54a16.32 16.32 0 01-10 3.22 16.73 16.73 0 01-16.82-17.12 16.5 16.5 0 0116.84-16.7zm0 28.34c2.023-.012 4-.602 5.7-1.7l-3.63-3.45 3.4-3.73 3.54 3.54a12.07 12.07 0 001.8-6.3c0-6.49-4.74-11.27-10.81-11.27s-10.72 4.78-10.72 11.27c0 6.67 4.74 11.64 10.72 11.64zm22.95-27.74h5.95v20.89c0 4.37 2.85 6.85 7.22 6.85 4.37 0 7.27-2.48 7.27-6.9V13.99h5.94v20.89c0 7.31-5.29 12.28-13.16 12.28s-13.2-5-13.2-12.28l-.02-20.89zm50.09 24.24h-11.45l-2.76 8.38h-6.12l11.5-32.62h6.21l11.48 32.62h-6.1l-2.76-8.38zm-5.75-18.63s-.73 3.22-1.38 5.06l-2.9 8.74h8.56l-2.9-8.74c-.6-1.84-1.28-5.06-1.28-5.06h-.1zm23.69-.55h-10.72v-5.06H396v5.11h-10.74v27.51h-5.94zm20.98-5.06h19.55v5.11h-13.61v8.56h11v5.1h-11v8.79h14.36v5.11h-20.3zm40.8-.6c8 0 12.06 4.46 12.06 4.46l-2.86 4.42a14.37 14.37 0 00-8.92-3.45c-6.9 0-10.95 5.15-10.95 11.22s4.19 11.69 11 11.69a14.08 14.08 0 009.48-4.14l3.13 4.28a17.59 17.59 0 01-12.8 5.29c-10 0-16.88-7.41-16.88-17a16.42 16.42 0 0116.74-16.77zm18.4.6h5.94v13.8h14.95v-13.8h5.93v32.62h-5.93V32.9h-14.95v13.71h-5.94zm57.24-.6c7.73 0 11.64 4.19 11.64 4.19l-1.7 2.34a15.22 15.22 0 00-9.85-3.58c-7.59 0-13 5.88-13 13.52s5.43 14 13.12 14a15.1 15.1 0 0010.48-4.32l1.81 2.28a17.22 17.22 0 01-12.37 5c-9.57 0-16.38-7.5-16.38-16.93s7-16.5 16.25-16.5zm19.41.6h3.18v29.44h15v2.85h-18.18zm22.68 0h3.22v21c0 5.56 3.59 8.92 9.15 8.92 5.56 0 9.21-3.36 9.21-9V13.99h3.17v21c0 7.18-5 11.83-12.33 11.83s-12.42-4.63-12.42-11.83v-21zm33.21 26.27a12.63 12.63 0 008.47 3.54c3.54 0 6.44-2.12 6.44-5.61 0-8.15-16.15-6.07-16.15-16.1 0-4.65 4.09-8.7 10.07-8.7a12.53 12.53 0 018.65 3.13l-1.56 2.67a11 11 0 00-7.09-2.76c-4.14 0-6.8 2.71-6.8 5.56 0 7.69 16.14 5.48 16.14 16.11 0 4.83-3.72 8.74-9.8 8.74a14.27 14.27 0 01-10.26-4.14l1.89-2.44zm32.52-23.46h-11.64v-2.81h26.41v2.86h-11.59v29.43h-3.18zm19.78-2.81h18.22v2.86h-15v11.72h12.28v2.85h-12.32v12h15.87v2.85h-19zm26.27 0h9.57c3.31 0 4.78.33 6.07.88 3 1.33 4.88 4.41 4.88 8.32 0 4.37-2.49 7.73-6.12 8.75v.05c.303.413.58.843.83 1.29l7 13h-3.6l-7.31-13.61h-8.15v13.61h-3.17V13.99zm10.86 15.87c3.91 0 6.39-2.53 6.39-6.57 0-2.67-1.06-4.65-2.94-5.66-1-.51-2.12-.78-4.6-.78h-6.54v13l7.69.01zM139.05 59.78h2l10.78 15.21c.72 1 1.74 2.85 1.74 2.85h.06s-.18-1.74-.18-2.85V59.78h2.07v21.09h-2l-10.78-15.18c-.72-1-1.74-2.85-1.74-2.85h-.06s.18 1.74.18 2.85v15.18h-2.07V59.78zm30.93 5.64a7.91 7.91 0 11-8 7.83 7.81 7.81 0 018-7.83zm0 14a6 6 0 005.88-6.15 5.88 5.88 0 10-11.76 0 6 6 0 005.88 6.13v.02zm13.86-13.64h2v2.67c0 .66-.06 1.2-.06 1.2h.06c.72-2.28 2.4-4 4.77-4 .272.003.544.033.81.09v2a5.16 5.16 0 00-.75-.06c-2.13 0-3.72 1.68-4.38 3.9a10 10 0 00-.42 2.94v6.36h-2l-.03-15.1zm10.8 0h2.16l3.66 11.21c.24.72.45 1.62.45 1.62h.06s.21-.9.45-1.62l3.72-11.19h2l3.73 11.19c.24.72.45 1.62.45 1.62h.06s.21-.87.45-1.62l3.66-11.25h2.16l-5.1 15.09h-2.22l-3.69-10.74c-.27-.75-.48-1.62-.48-1.62h-.06s-.21.87-.45 1.62l-3.69 10.74h-2.22l-5.1-15.05zm34.44-.36c4.17 0 6.3 3.21 6.3 7 0 .36-.06 1-.06 1h-11.58a5.68 5.68 0 005.85 6 7 7 0 004.59-1.83l.93 1.56a8.65 8.65 0 01-5.58 2.1 7.63 7.63 0 01-7.89-7.89c0-4.97 3.36-7.94 7.44-7.94zm4.23 6.33c-.12-3.15-2-4.62-4.29-4.62a5.12 5.12 0 00-5.19 4.62h9.48zm13.26 13.59c2.94 0 5.28-1.38 5.28-4.74v-1.38c.001-.36.021-.721.06-1.08h-.06a5 5 0 01-4.77 2.64c-4.05 0-6.72-3.21-6.72-7.74s2.49-7.62 6.54-7.62 5 2.52 5 2.52h.06a3.45 3.45 0 010-.51v-1.65h2v14.73c0 4.8-3.54 6.66-7.23 6.66a11.06 11.06 0 01-4.95-1.2l.78-1.68a9.27 9.27 0 004.01 1.05zm5.31-12.3c0-4.41-2.1-5.76-4.77-5.76-2.94 0-4.65 2.13-4.65 5.73 0 3.6 1.95 5.94 4.95 5.94 2.37.04 4.47-1.47 4.47-5.91zm8.94-13.26h2.13v2.55h-2.13v-2.55zm.06 6h2v15.09h-2V65.78zm17.04 5.76h.84v-.39c0-2.91-1.59-3.9-3.75-3.9a7.35 7.35 0 00-4.26 1.44l-1-1.56a8.67 8.67 0 015.37-1.71c3.63 0 5.64 2 5.64 5.79v9.66h-2v-1.65c-.002-.42.018-.841.06-1.26h-.06a5.45 5.45 0 01-5 3.27c-2.52 0-5.13-1.47-5.13-4.47.05-5.1 6.68-5.22 9.29-5.22zm-3.78 8c2.88 0 4.62-3 4.62-5.61v-.66h-.87c-2.37 0-7.11.09-7.11 3.42 0 1.36 1.11 2.8 3.36 2.8v.05zm13.44-13.76h2v2.21c0 .66-.06 1.2-.06 1.2h.06a6.42 6.42 0 016-3.81c3.72 0 5 2.13 5 5.85v9.6h-2v-9.06c0-2.37-.36-4.47-3.27-4.47a5.74 5.74 0 00-5.49 4.26 7.46 7.46 0 00-.24 2v7.23h-2V65.78zm41.01 8.37h-8.49l-2.4 6.72h-2.19l7.75-21.09h2.22l7.78 21.09h-2.19l-2.48-6.72zm-4.26-12.16s-.45 1.74-.81 2.73l-2.82 7.65h7.26l-2.76-7.65c-.36-1-.81-2.73-.81-2.73h-.06zm19.59 3.43a5.4 5.4 0 014.95 2.91h.06v-2.55h2v21.09h-2v-7.26c0-.78.06-1.32.06-1.32h-.06a5.47 5.47 0 01-5.13 2.94c-4.05 0-6.57-3.24-6.57-7.92s2.73-7.89 6.69-7.89zm.09 14c2.52 0 4.89-1.8 4.89-6.09 0-3.06-1.56-6.06-4.8-6.06-2.67 0-4.86 2.25-4.86 6.06 0 3.81 1.95 6.07 4.77 6.07v.02zm13.65-13.64h2v9.06c0 2.37.36 4.47 3.27 4.47 3.45 0 5.58-3 5.58-6.3v-7.23h2v15.09h-2v-2.25c0-.66.06-1.2.06-1.2h-.06a6.45 6.45 0 01-5.91 3.81c-3.54 0-5-1.92-5-5.85l.06-9.6zm27.93 5.76h.84v-.39c0-2.91-1.59-3.9-3.75-3.9a7.35 7.35 0 00-4.26 1.44l-1-1.56a8.67 8.67 0 015.37-1.71c3.63 0 5.64 2 5.64 5.79v9.66h-1.95v-1.65c-.002-.42.018-.841.06-1.26h-.06a5.45 5.45 0 01-5 3.27c-2.52 0-5.13-1.47-5.13-4.47 0-5.1 6.63-5.22 9.24-5.22zm-3.78 8c2.88 0 4.62-3 4.62-5.61v-.66h-.87c-2.37 0-7.11.09-7.11 3.42 0 1.36 1.11 2.8 3.36 2.8v.05zm20.31-14.12a7.43 7.43 0 015.52 2.16l-1.05 1.53a6.39 6.39 0 00-4.41-1.83 5.79 5.79 0 00-5.88 6.06 5.85 5.85 0 005.94 6.06 6.65 6.65 0 004.83-2.13l.93 1.59a8.06 8.06 0 01-5.88 2.37 7.91 7.91 0 110-15.81zm11.46.36h2v9.06c0 2.37.36 4.47 3.27 4.47 3.45 0 5.58-3 5.58-6.3v-7.23h2v15.09h-2v-2.25c0-.66.06-1.2.06-1.2h-.06a6.45 6.45 0 01-5.91 3.81c-3.54 0-5-1.92-5-5.85l.06-9.6zm19.77-6h2v17.07c0 2 .9 2.28 1.68 2.28.17.01.34.01.51 0v1.83a5.16 5.16 0 01-.75.06c-1.26 0-3.48-.39-3.48-3.69l.04-17.55zm10.2 7.89h-2v-1.68h2v-4.38h2v4.38h3.78v1.71h-3.78v7.5c0 3.54 2.25 4 3.39 4a3.5 3.5 0 00.69-.06v1.83a5.37 5.37 0 01-.87.06c-1.74 0-5.25-.57-5.25-5.61l.04-7.75zm11.34-1.89h2v9.06c0 2.37.36 4.47 3.27 4.47 3.45 0 5.58-3 5.58-6.3v-7.23h2v15.09h-2v-2.25c0-.66.06-1.2.06-1.2h-.06a6.45 6.45 0 01-5.91 3.81c-3.54 0-5-1.92-5-5.85l.06-9.6zm19.92 0h2v2.67c0 .66-.06 1.2-.06 1.2h.06c.72-2.28 2.4-4 4.77-4 .272.003.544.033.81.09v2a5.16 5.16 0 00-.75-.06c-2.13 0-3.72 1.68-4.38 3.9a10 10 0 00-.42 2.94v6.36h-2l-.03-15.1zm18.96-.36c4.17 0 6.3 3.21 6.3 7 0 .36-.06 1-.06 1h-11.58a5.68 5.68 0 005.85 6 7 7 0 004.59-1.83l.93 1.56a8.65 8.65 0 01-5.58 2.1 7.63 7.63 0 01-7.89-7.89c0-4.97 3.36-7.94 7.44-7.94zm4.23 6.33c-.12-3.15-2-4.62-4.29-4.62a5.12 5.12 0 00-5.19 4.62H498zm23.52-10.11h-7.59v-1.86h17.22v1.86h-7.56v19.23h-2.07zm17.91 3.78c4.17 0 6.3 3.21 6.3 7 0 .36-.06 1-.06 1h-11.58a5.68 5.68 0 005.85 6 7 7 0 004.59-1.83l.93 1.56a8.65 8.65 0 01-5.58 2.1 7.63 7.63 0 01-7.89-7.89c0-4.97 3.36-7.94 7.44-7.94zm4.23 6.33c-.12-3.15-2-4.62-4.29-4.62a5.12 5.12 0 00-5.19 4.62h9.48zm14.91-6.33a7.43 7.43 0 015.52 2.16l-1.05 1.53a6.39 6.39 0 00-4.41-1.83 5.79 5.79 0 00-5.88 6.06 5.85 5.85 0 005.94 6.06 6.65 6.65 0 004.83-2.13l.93 1.59a8.06 8.06 0 01-5.88 2.37 7.91 7.91 0 110-15.81zm11.69-5.64h2v8.21c0 .69-.06 1.23-.06 1.23h.06a6.46 6.46 0 016-3.75c3.72 0 5 2.13 5 5.85v9.6h-2v-9.06c0-2.37-.36-4.47-3.27-4.47a5.73 5.73 0 00-5.49 4.29 7.11 7.11 0 00-.24 2v7.23h-2V59.78zm19.84 6h2v2.21c0 .66-.06 1.2-.06 1.2h.06a6.42 6.42 0 016-3.81c3.72 0 5 2.13 5 5.85v9.6h-2v-9.06c0-2.37-.36-4.47-3.27-4.47a5.74 5.74 0 00-5.49 4.26 7.46 7.46 0 00-.24 2v7.23h-2V65.78zm26.73-.36a7.91 7.91 0 11-8 7.83 7.81 7.81 0 018-7.83zm0 14a6 6 0 005.88-6.15 5.88 5.88 0 00-11.76 0 6 6 0 005.88 6.13v.02zm13.71-19.64h2v17.07c0 2 .9 2.28 1.68 2.28.17.01.34.01.51 0v1.83a5.16 5.16 0 01-.75.06c-1.26 0-3.48-.39-3.48-3.69l.04-17.55zm16.5 5.64a7.91 7.91 0 11-8 7.83 7.81 7.81 0 018-7.83zm0 14a6 6 0 005.88-6.15 5.88 5.88 0 00-11.76 0 6 6 0 005.88 6.13v.02zm19.08 5.92c2.94 0 5.28-1.38 5.28-4.74v-1.38c.001-.36.021-.721.06-1.08h-.06a5 5 0 01-4.77 2.64c-4 0-6.72-3.21-6.72-7.74s2.49-7.62 6.54-7.62 5 2.52 5 2.52h.06a3.45 3.45 0 010-.51v-1.65h2v14.73c0 4.8-3.54 6.66-7.23 6.66a11.06 11.06 0 01-5-1.2l.78-1.68a9.27 9.27 0 004.06 1.05zm5.31-12.3c0-4.41-2.1-5.76-4.77-5.76-2.94 0-4.65 2.13-4.65 5.73 0 3.6 2 5.94 5 5.94 2.32.04 4.42-1.47 4.42-5.91zm7.53 11.61a3.25 3.25 0 001.8.69c1.32 0 2.25-1.08 2.85-2.46l.93-2.13-6.3-15h2.25l4.44 11c.3.75.54 1.59.54 1.59h.06c.139-.54.31-1.07.51-1.59l4.35-11h2.22l-7.44 18.24a4.65 4.65 0 01-4.35 3.15 4.47 4.47 0 01-2.64-.9l.78-1.59zM0 49.58a4.81 4.81 0 114.79 4.79A4.8 4.8 0 010 49.58zm30.67 39.95a4.8 4.8 0 11-4.83 4.8 4.79 4.79 0 014.83-4.8zm15.51-66.16a4.81 4.81 0 11-4.8-4.78 4.8 4.8 0 014.8 4.78zm61.98 31.01a4.81 4.81 0 114.8-4.79 4.8 4.8 0 01-4.8 4.79zM41.09 89.11a4.8 4.8 0 114.8 4.82 4.78 4.78 0 01-4.8-4.82zm49.17-10.58a4.8 4.8 0 11-4.77-4.81 4.77 4.77 0 014.77 4.81zm0-57.9a4.8 4.8 0 11-4.75-4.82 4.76 4.76 0 014.75 4.82zM71.62 18.6a4.8 4.8 0 11-4.83 4.74 4.75 4.75 0 014.83-4.74zM30.31 29.66a4.8 4.8 0 11-4.8 4.78 4.78 4.78 0 014.8-4.78zm52.36 0a4.8 4.8 0 11-4.82 4.75 4.76 4.76 0 014.82-4.75zM12.13 60.18a4.8 4.8 0 119.6.02 4.8 4.8 0 01-9.6-.02zm83.89-4.82a4.81 4.81 0 11.439 9.61 4.81 4.81 0 01-.439-9.61zm.02-11.59a4.81 4.81 0 114.8-4.84 4.77 4.77 0 01-4.8 4.84zM82.35 89.53a4.8 4.8 0 11-4.83 4.8 4.79 4.79 0 014.83-4.8zM67.08 14.81a4.8 4.8 0 114.8-4.83 4.76 4.76 0 01-4.8 4.83zm-21.18 0a4.8 4.8 0 11-.02-9.6 4.8 4.8 0 01.02 9.6zM21.47 49.58a4.8 4.8 0 114.79 4.79 4.78 4.78 0 01-4.79-4.79zm70.04 0a4.81 4.81 0 11-4.77-4.82 4.8 4.8 0 014.77 4.82zM67.06 84.32a4.81 4.81 0 11-4.78 4.8 4.79 4.79 0 014.78-4.8zM32.32 20.61a4.8 4.8 0 11-4.76-4.8 4.76 4.76 0 014.76 4.8zm-1.68-11a4.81 4.81 0 114.81-4.77 4.77 4.77 0 01-4.81 4.77zm-7.9 68.94a4.76 4.76 0 014.79-4.83 4.81 4.81 0 110 9.61 4.76 4.76 0 01-4.79-4.78zm18.63 1.99a4.8 4.8 0 114.81-4.76 4.77 4.77 0 01-4.81 4.76zM82.32 9.61a4.81 4.81 0 114.8-4.79 4.8 4.8 0 01-4.8 4.79zM12.13 38.99a4.81 4.81 0 119.62.04 4.81 4.81 0 01-9.62-.04zm70.52 30.49a4.8 4.8 0 114.8-4.79 4.79 4.79 0 01-4.8 4.79zm-52.39 0a4.8 4.8 0 114.84-4.74 4.78 4.78 0 01-4.84 4.74zm41.34 1.51a4.8 4.8 0 11-4.81 4.78 4.76 4.76 0 014.81-4.78zm-10.34 8.82a4.8 4.8 0 11-9.6-.07 4.8 4.8 0 019.6.07zm-4.8-65.26a4.8 4.8 0 11-4.78 4.81 4.82 4.82 0 014.78-4.81z"/></svg>
