<?xml version="1.0" encoding="utf-8"?>
<!-- Generator: Adobe Illustrator 21.0.0, SVG Export Plug-In . SVG Version: 6.00 Build 0)  -->
<!DOCTYPE svg PUBLIC "-//W3C//DTD SVG 1.1//EN" "http://www.w3.org/Graphics/SVG/1.1/DTD/svg11.dtd">
<svg version="1.1" id="Layer_1" xmlns="http://www.w3.org/2000/svg" xmlns:xlink="http://www.w3.org/1999/xlink" x="0px" y="0px"
	 width="230px" height="54px" viewBox="0 0 230 54" style="enable-background:new 0 0 230 54;" xml:space="preserve">
<g style="enable-background:new    ;">
	<path style="fill:#FFFFFF;" d="M86.115,3.662l-0.378,2.13h-11.93l-1.469,8.277H82.85l-0.381,2.148H71.957l-2.222,12.519h-6.186
		l4.45-25.075H86.115z"/>
</g>
<g style="enable-background:new    ;">
	<path style="fill:#FFFFFF;" d="M90.994,3.662h6.203L93.926,22.1c-0.181,1.02-0.538,1.961-1.067,2.818s-1.227,1.596-2.086,2.219
		c-0.861,0.623-1.891,1.11-3.088,1.46c-1.197,0.354-2.556,0.529-4.081,0.529c-0.851,0-1.624-0.072-2.318-0.221
		c-0.696-0.145-1.332-0.339-1.91-0.579c-0.578-0.242-1.111-0.518-1.599-0.829c-0.489-0.311-0.952-0.625-1.392-0.942l2.126-2.202
		c0.218,0.247,0.489,0.503,0.813,0.767c0.328,0.263,0.698,0.502,1.115,0.712c0.417,0.212,0.875,0.386,1.37,0.521
		c0.495,0.134,1.028,0.202,1.595,0.202c1.087,0,1.998-0.285,2.731-0.854c0.733-0.57,1.185-1.335,1.356-2.298L90.994,3.662z"/>
</g>
<g style="enable-background:new    ;">
	<path style="fill:#FFFFFF;" d="M122.207,3.662l-0.378,2.13h-12.656l-1.469,8.277h10.512l-0.381,2.148h-10.512l-1.766,9.949h12.656
		l-0.456,2.57H98.914l4.45-25.075H122.207z"/>
	<path style="fill:#FFFFFF;" d="M127.349,3.662h6.186l-3.994,22.504h12.888l-0.456,2.57h-19.074L127.349,3.662z"/>
	<path style="fill:#FFFFFF;" d="M150.411,3.662h6.186l-3.994,22.504h12.888l-0.456,2.57h-19.074L150.411,3.662z"/>
</g>
<g style="enable-background:new    ;">
	<path style="fill:#FFFFFF;" d="M67.43,42.722h-3.185l0.36-2.026h8.911l-0.36,2.026h-3.231l-1.504,8.479h-2.495L67.43,42.722z"/>
	<path style="fill:#FFFFFF;" d="M80.626,46.821h-4.377l-0.421,2.368h4.895l-0.357,2.012h-7.39l1.865-10.505h7.139l-0.356,2.01
		h-4.644l-0.374,2.104h4.377L80.626,46.821z"/>
	<path style="fill:#FFFFFF;" d="M90.799,50.874c-0.511,0.232-1.707,0.514-3.165,0.514c-3.986,0-5.667-2.292-5.136-5.285
		c0.614-3.459,3.708-5.593,7.269-5.593c1.428,0,2.461,0.28,2.903,0.529l-0.876,1.932c-0.508-0.234-1.286-0.451-2.275-0.451
		c-2.133,0-3.958,1.184-4.357,3.427c-0.352,1.98,0.744,3.415,3.16,3.415c0.862,0,1.819-0.173,2.41-0.407L90.799,50.874z"/>
	<path style="fill:#FFFFFF;" d="M96.833,40.696l-0.711,4.006h4.55l0.711-4.006h2.495l-1.865,10.505h-2.495l0.778-4.381h-4.55
		l-0.778,4.381h-2.495l1.865-10.505H96.833z"/>
	<path style="fill:#FFFFFF;" d="M104.185,51.201l1.865-10.505h3.076l1.717,3.754c0.525,1.203,0.952,2.509,1.258,3.788h0.048
		c0.093-1.496,0.302-2.759,0.564-4.238l0.586-3.305h2.321l-1.865,10.505h-2.714l-1.757-4.068c-0.505-1.217-1.035-2.572-1.396-3.897
		h-0.061c-0.189,1.512-0.431,2.962-0.71,4.535l-0.609,3.431H104.185z"/>
	<path style="fill:#FFFFFF;" d="M120.946,51.388c-3.388,0-5.114-2.307-4.577-5.331c0.572-3.227,3.307-5.548,6.68-5.548
		c3.484,0,5.195,2.29,4.651,5.361c-0.581,3.273-3.302,5.517-6.738,5.517H120.946z M121.415,49.454c1.867,0,3.26-1.496,3.616-3.507
		c0.337-1.9-0.491-3.505-2.373-3.505c-1.884,0-3.276,1.574-3.625,3.537c-0.346,1.948,0.545,3.474,2.364,3.474H121.415z"/>
	<path style="fill:#FFFFFF;" d="M130.304,40.696h2.495l-1.497,8.43h4.707l-0.368,2.075h-7.202L130.304,40.696z"/>
	<path style="fill:#FFFFFF;" d="M141.498,51.388c-3.388,0-5.113-2.307-4.576-5.331c0.571-3.227,3.306-5.548,6.679-5.548
		c3.484,0,5.195,2.29,4.651,5.361c-0.581,3.273-3.302,5.517-6.738,5.517H141.498z M141.967,49.454c1.867,0,3.26-1.496,3.616-3.507
		c0.337-1.9-0.491-3.505-2.373-3.505c-1.884,0-3.277,1.574-3.626,3.537c-0.345,1.948,0.546,3.474,2.365,3.474H141.967z"/>
	<path style="fill:#FFFFFF;" d="M158.91,50.64c-0.882,0.28-2.488,0.668-4.088,0.668c-2.181,0-3.641-0.529-4.529-1.527
		c-0.824-0.933-1.142-2.243-0.882-3.709c0.598-3.366,3.657-5.487,7.533-5.487c1.552,0,2.708,0.297,3.237,0.579l-0.893,1.948
		c-0.625-0.282-1.399-0.516-2.779-0.516c-2.198,0-4.049,1.154-4.425,3.274c-0.366,2.056,0.891,3.459,3.183,3.459
		c0.659,0,1.219-0.078,1.456-0.171l0.376-2.119h-1.867l0.341-1.919h4.314L158.91,50.64z"/>
	<path style="fill:#FFFFFF;" d="M163.651,51.201l0.78-4.396l-2.587-6.109h2.919l0.74,2.54c0.226,0.781,0.391,1.262,0.554,1.934
		h0.031c0.378-0.624,0.761-1.184,1.234-1.919l1.663-2.555h2.886l-4.927,6.016l-0.797,4.489H163.651z"/>
	<path style="fill:#FFFFFF;" d="M184.625,50.64c-0.882,0.28-2.488,0.668-4.088,0.668c-2.181,0-3.641-0.529-4.529-1.527
		c-0.824-0.933-1.142-2.243-0.882-3.709c0.598-3.366,3.657-5.487,7.533-5.487c1.552,0,2.708,0.297,3.237,0.579l-0.893,1.948
		c-0.625-0.282-1.399-0.516-2.779-0.516c-2.198,0-4.049,1.154-4.425,3.274c-0.366,2.056,0.891,3.459,3.183,3.459
		c0.659,0,1.219-0.078,1.456-0.171l0.376-2.119h-1.867l0.341-1.919h4.314L184.625,50.64z"/>
	<path style="fill:#FFFFFF;" d="M188.35,40.837c0.839-0.126,2.097-0.234,3.542-0.234c1.709,0,2.792,0.265,3.473,0.841
		c0.546,0.466,0.801,1.232,0.629,2.214c-0.249,1.401-1.508,2.305-2.403,2.57l-0.01,0.061c0.684,0.297,0.983,0.998,1.121,1.904
		c0.149,1.199,0.232,2.585,0.376,3.008h-2.557c-0.117-0.312-0.249-1.078-0.353-2.433c-0.1-1.31-0.521-1.652-1.602-1.668h-0.847
		l-0.728,4.101h-2.48L188.35,40.837z M190.031,45.342h1.129c1.286,0,2.156-0.564,2.319-1.481c0.174-0.982-0.516-1.435-1.66-1.435
		c-0.707,0-1.092,0.048-1.284,0.08L190.031,45.342z"/>
	<path style="fill:#FFFFFF;" d="M201.372,51.388c-3.388,0-5.115-2.307-4.578-5.331c0.573-3.227,3.308-5.548,6.681-5.548
		c3.484,0,5.195,2.29,4.651,5.361c-0.581,3.273-3.302,5.517-6.738,5.517H201.372z M201.842,49.454c1.867,0,3.262-1.496,3.618-3.507
		c0.337-1.9-0.493-3.505-2.374-3.505c-1.884,0-3.275,1.574-3.624,3.537c-0.347,1.948,0.544,3.474,2.363,3.474H201.842z"/>
	<path style="fill:#FFFFFF;" d="M213.226,40.696l-1.027,5.782c-0.337,1.902,0.257,2.976,1.7,2.976c1.476,0,2.442-1.028,2.788-2.976
		l1.025-5.782h2.495l-1.012,5.704c-0.606,3.412-2.737,4.988-5.749,4.988c-2.825,0-4.356-1.451-3.72-5.034l1.004-5.658H213.226z"/>
	<path style="fill:#FFFFFF;" d="M222.354,40.837c0.807-0.126,1.957-0.234,3.635-0.234c1.552,0,2.576,0.326,3.204,0.857
		c0.598,0.514,0.947,1.388,0.753,2.479c-0.178,0.996-0.667,1.902-1.426,2.462c-1.02,0.796-2.353,1.154-3.938,1.154
		c-0.36,0-0.701-0.032-0.928-0.078l-0.661,3.726h-2.48L222.354,40.837z M223.99,45.589c0.222,0.065,0.504,0.078,0.926,0.078
		c1.349,0,2.353-0.607,2.547-1.698c0.174-0.98-0.502-1.512-1.788-1.512c-0.565,0-0.947,0.032-1.142,0.078L223.99,45.589z"/>
</g>
<g>
	<g>
		<path style="fill:#FFFFFF;" d="M53.182,1.17V52.83H1.177V1.17H53.182 M54.359,0H0v54h54.359V0L54.359,0z"/>
	</g>
	<polygon style="fill:#FFFFFF;" points="8.046,51.661 3.14,51.661 3.14,3.119 35.52,3.119 32.38,14.231 16.681,14.231 
		15.503,21.054 30.614,21.054 28.455,30.996 12.756,30.996 	"/>
	<polygon style="fill:#FFFFFF;" points="38.66,7.213 43.37,7.213 44.939,2.339 46.313,7.213 51.219,7.213 47.294,10.137 
		48.864,15.011 44.939,11.892 41.015,15.011 42.585,10.137 	"/>
</g>
</svg>
